<?xml version="1.0" encoding="utf-8"?>
<!-- Generator: Adobe Illustrator 24.0.2, SVG Export Plug-In . SVG Version: 6.00 Build 0)  -->
<svg version="1.1" id="Warstwa_1" xmlns="http://www.w3.org/2000/svg" xmlns:xlink="http://www.w3.org/1999/xlink" x="0px" y="0px"
	 viewBox="0 0 128.3 86.53" style="enable-background:new 0 0 128.3 86.53;" xml:space="preserve">
<style type="text/css">
	.st0{clip-path:url(#SVGID_2_);fill:#FFFFFF;}
</style>
<rect x="-17" y="-9.47" width="150" height="107"/>
<g>
	<defs>
		<rect id="SVGID_1_" y="0" width="128.3" height="86.53"/>
	</defs>
	<clipPath id="SVGID_2_">
		<use xlink:href="#SVGID_1_"  style="overflow:visible;"/>
	</clipPath>
	<path class="st0" d="M31.42,52.65c-2.7-3.98-5.77-8.28-9.3-11.8c3.64-3.21,6.34-5.92,7.39-7.25l-1.73-0.45v-0.8h6.74
		c-2.79,1.96-5.8,4.58-9.1,7.71c2.59,3.5,6.23,8.16,9.24,11.52l1.39,0.23v0.85H31.42z"/>
	<path class="st0" d="M56.02,43.21c-0.11-6.31-3.3-9.64-8.22-9.64c-4.83,0-7.79,3.16-7.79,8.48c0,5.89,3.27,9.36,8.59,9.44v1.62
		h-0.57c-6.63,0-11.23-3.9-11.23-10.58c0-6.57,4.78-10.61,11.23-10.61c7.2,0,11.23,4.32,11.23,11.29H56.02z"/>
	<path class="st0" d="M64.47,52.82c-0.37,0-0.74-0.03-1.14-0.06v-1.65c4.81,0.34,5.97-1.54,5.97-4.1c0-2.84-1.34-3.98-5.97-3.98
		v-1.71c3.73,0,5.01-1.14,5.01-3.61c0-2.42-1.11-3.73-4.61-3.73h-0.4v-1.65c0.48-0.06,0.91-0.09,1.34-0.09
		c4.46-0.06,6.57,2.1,6.57,5.03c0,1.91-0.94,3.5-2.62,4.52c2.42,0.71,3.67,2.3,3.67,5C72.29,50.34,69.76,52.82,64.47,52.82"/>
	<path class="st0" d="M85.23,53.1c-2.84,0-5.18-0.8-6.71-2.36c-1.48-1.51-1.88-3.56-1.88-6.2c0-1.31,0.06-3.04,0.06-5.15
		c0-2.22-0.09-4.78-0.34-7.05h5.26v0.85l-2.02,0.43c-0.31,3.36-0.23,6.37-0.23,8.33c0,2.22-0.17,5.32,1.36,7.11
		c1.22,1.45,2.82,2.19,4.86,2.19c4.07,0,5.89-2.33,5.94-6.43h1.71C92.68,50.51,90.21,53.1,85.23,53.1"/>
	<path class="st0" d="M102.7,46.99c-0.23-1.62-0.74-2.36-2.3-2.9l-2.82-0.77c-3.1-0.85-4.78-2.36-4.78-5.09
		c0-3.44,2.5-5.94,6.85-6.28v1.71c-2.73,0-4.07,1.36-4.07,3.53c0,2.42,1.45,3.19,3.27,3.64l2.22,0.57c2.25,0.57,4.29,1.68,4.29,5.6
		H102.7z"/>
</g>
</svg>
