<?xml version="1.0" encoding="utf-8"?>
<!-- Generator: Adobe Illustrator 16.0.0, SVG Export Plug-In . SVG Version: 6.00 Build 0)  -->
<!DOCTYPE svg PUBLIC "-//W3C//DTD SVG 1.1//EN" "http://www.w3.org/Graphics/SVG/1.1/DTD/svg11.dtd">
<svg version="1.1" id="Warstwa_1" xmlns="http://www.w3.org/2000/svg" xmlns:xlink="http://www.w3.org/1999/xlink" x="0px" y="0px"
	 width="462.558px" height="462.35px" viewBox="248.736 49.227 462.558 462.35"
	 enable-background="new 248.736 49.227 462.558 462.35" xml:space="preserve">
<path fill="#E24E3A" d="M480.241,49.388c74.807,0,149.612,0,224.418-0.161c5.792,0,6.757,1.77,6.596,6.917
	c-0.321,13.192-0.321,26.544,0,39.736c0,3.7-0.643,5.148-4.826,5.148c-150.898-0.161-301.637-0.161-452.536,0
	c-3.7,0-5.148-0.644-5.148-4.826c0.322-13.835,0.482-27.67,0-41.505c-0.161-5.148,1.931-5.309,5.792-5.309
	c60.006,0.161,120.011,0,179.856,0C449.676,49.388,464.958,49.388,480.241,49.388z"/>
<path fill="#E24E3A" d="M480.08,306.142c-74.967,0-150.094,0-225.062,0.161c-4.987,0-6.274-1.126-6.274-6.113
	c0.322-13.353,0.322-26.866,0-40.379c0-4.022,0.965-4.987,4.987-4.987c37.966,0.161,75.771,0.161,113.738,0.161
	c112.29,0,224.74,0,337.03-0.161c5.47,0,7.078,1.287,6.756,6.757c-0.482,13.031-0.321,26.062,0,39.092
	c0.161,4.505-1.126,5.47-5.63,5.47C630.497,305.981,555.208,306.142,480.08,306.142z"/>
<path fill="#E24E3A" d="M570.33,460.098c44.884,0,89.768,0.161,134.651-0.161c5.147,0,6.273,1.287,6.113,6.274
	c-0.322,13.674-0.322,27.188,0,40.861c0,3.861-1.126,4.505-4.666,4.505c-91.054-0.161-181.947-0.161-273.002,0
	c-4.504,0-5.147-1.608-4.986-5.47c0.16-13.353,0.321-26.866,0-40.219c-0.161-4.986,1.447-5.952,6.113-5.952
	C479.759,460.259,525.125,460.098,570.33,460.098z"/>
</svg>
